<!DOCTYPE svg PUBLIC "-//W3C//DTD SVG 1.1//EN" "http://www.w3.org/Graphics/SVG/1.1/DTD/svg11.dtd">
<!-- Uploaded to: SVG Repo, www.svgrepo.com, Transformed by: SVG Repo Mixer Tools -->
<svg fill="#fff700" width="800px" height="800px" viewBox="-2.5 0 19 19" xmlns="http://www.w3.org/2000/svg" class="cf-icon-svg" stroke="#fff700" stroke-width="0.00019">
<g id="SVGRepo_bgCarrier" stroke-width="0"/>
<g id="SVGRepo_tracerCarrier" stroke-linecap="round" stroke-linejoin="round" stroke="#CCCCCC" stroke-width="0.076"/>
<g id="SVGRepo_iconCarrier">
<path d="M11.835 8.827a2.648 2.648 0 0 1-3.381 3.964 3.734 3.734 0 0 1-6.686-2.29c0-.099.008-.195.015-.292a3.734 3.734 0 1 1 4.42-6.017 3.662 3.662 0 0 1 5.632 4.635zm-7.434-.265a.803.803 0 0 0-.811-.867.813.813 0 0 0-.826.867.82.82 0 1 0 1.637 0zm2.846 0a.802.802 0 0 0-.811-.867.813.813 0 0 0-.825.867.82.82 0 1 0 1.636 0zm2.847 0a.802.802 0 0 0-.812-.867.813.813 0 0 0-.825.867.82.82 0 1 0 1.637 0zm2.58 6.691a1.141 1.141 0 1 1 1.141-1.141 1.141 1.141 0 0 1-1.14 1.141z"/>
</g>
</svg>