<svg width="247" height="29" viewBox="0 0 247 29" fill="none" xmlns="http://www.w3.org/2000/svg">
<path fill-rule="evenodd" clip-rule="evenodd" d="M103.36 0V15.2436C103.36 17.913 105.524 20.0769 108.193 20.0769H108.937V21.5641H108.193C104.702 21.5641 101.873 18.7343 101.873 15.2436V0H103.36Z" fill="white"/>
<path fill-rule="evenodd" clip-rule="evenodd" d="M86.2563 8.17949C86.2563 3.66208 89.9184 0 94.4358 0H98.8974V21.5641H97.4102V11.5256H87.7435V21.5641H86.2563V8.17949ZM87.7435 10.0385H97.4102V1.48718H94.4358C90.7398 1.48718 87.7435 4.48343 87.7435 8.17949V10.0385Z" fill="white"/>
<path fill-rule="evenodd" clip-rule="evenodd" d="M127.526 7.43579V13.3845C127.526 17.0806 130.522 20.0768 134.218 20.0768H137.192V7.43579H138.68V21.564H134.218C129.701 21.564 126.039 17.9019 126.039 13.3845V7.43579H127.526Z" fill="white"/>
<path fill-rule="evenodd" clip-rule="evenodd" d="M158.757 7.43579V13.3845C158.757 17.0806 161.753 20.0768 165.45 20.0768H168.424V7.43579H169.911V21.564H165.45C160.932 21.564 157.27 17.9019 157.27 13.3845V7.43579H158.757Z" fill="white"/>
<path fill-rule="evenodd" clip-rule="evenodd" d="M219.731 7.43579V13.3845C219.731 17.0806 222.727 20.0768 226.423 20.0768H229.397V7.43579H230.885V21.564H226.423C221.906 21.564 218.244 17.9019 218.244 13.3845V7.43579H219.731Z" fill="white"/>
<path fill-rule="evenodd" clip-rule="evenodd" d="M141.654 13.7563C141.654 10.2656 144.484 7.43579 147.974 7.43579C151.465 7.43579 154.295 10.2656 154.295 13.7563V28.9999H152.808V21.564H148.718C144.817 21.564 141.654 18.4013 141.654 14.4999V13.7563ZM152.808 20.0768V13.7563C152.808 11.0869 150.644 8.92297 147.974 8.92297C145.305 8.92297 143.141 11.0869 143.141 13.7563V14.4999C143.141 17.5799 145.638 20.0768 148.718 20.0768H152.808Z" fill="white"/>
<path fill-rule="evenodd" clip-rule="evenodd" d="M123.064 15.9873C123.064 19.4781 120.235 22.3079 116.744 22.3079C113.253 22.3079 110.423 19.4781 110.423 15.9873V0.743761H111.911V8.17966H116C119.902 8.17966 123.064 11.3424 123.064 15.2438V15.9873ZM111.911 9.66684V15.9873C111.911 18.6567 114.075 20.8207 116.744 20.8207C119.413 20.8207 121.577 18.6567 121.577 15.9873V15.2438C121.577 12.1637 119.08 9.66684 116 9.66684H111.911Z" fill="white"/>
<path fill-rule="evenodd" clip-rule="evenodd" d="M202.629 13.7563C202.629 10.2656 205.459 7.43579 208.949 7.43579C212.44 7.43579 215.27 10.2656 215.27 13.7563V28.9999H213.783V21.564H209.693C205.792 21.564 202.629 18.4013 202.629 14.4999V13.7563ZM213.783 20.0768V13.7563C213.783 11.0869 211.619 8.92297 208.949 8.92297C206.28 8.92297 204.116 11.0869 204.116 13.7563V14.4999C204.116 17.5799 206.613 20.0768 209.693 20.0768H213.783Z" fill="white"/>
<path fill-rule="evenodd" clip-rule="evenodd" d="M172.885 13.7563C172.885 10.2656 175.715 7.43579 179.206 7.43579H181.622C183.778 7.43579 185.526 9.1836 185.526 11.3396C185.526 13.4957 183.778 15.2435 181.622 15.2435H174.422C174.785 17.972 177.121 20.0768 179.949 20.0768H185.526V21.564H179.949C176.299 21.564 173.295 18.7954 172.924 15.2435H172.885V13.7563ZM174.372 13.7563H181.622C182.957 13.7563 184.039 12.6743 184.039 11.3396C184.039 10.0049 182.957 8.92297 181.622 8.92297H179.206C176.536 8.92297 174.372 11.0869 174.372 13.7563Z" fill="white"/>
<path fill-rule="evenodd" clip-rule="evenodd" d="M233.859 13.7563C233.859 10.2656 236.689 7.43579 240.18 7.43579H242.597C244.753 7.43579 246.5 9.1836 246.5 11.3396C246.5 13.4957 244.753 15.2435 242.597 15.2435H235.396C235.759 17.972 238.096 20.0768 240.923 20.0768H246.5V21.564H240.923C237.273 21.564 234.27 18.7954 233.898 15.2435H233.859V13.7563ZM235.347 13.7563H242.597C243.931 13.7563 245.013 12.6743 245.013 11.3396C245.013 10.0049 243.931 8.92297 242.597 8.92297H240.18C237.511 8.92297 235.347 11.0869 235.347 13.7563Z" fill="white"/>
<path fill-rule="evenodd" clip-rule="evenodd" d="M188.5 15.6153C188.5 11.0979 192.163 7.43579 196.68 7.43579H201.142V8.92297H196.68C192.984 8.92297 189.988 11.9192 189.988 15.6153V21.564H188.5V15.6153Z" fill="white"/>
<path fill-rule="evenodd" clip-rule="evenodd" d="M1.48718 0V13.3846C1.48718 17.0807 4.48343 20.0769 8.17949 20.0769H12.641V21.5641H8.17949C3.66208 21.5641 0 17.902 0 13.3846V0H1.48718Z" fill="white"/>
<path fill-rule="evenodd" clip-rule="evenodd" d="M15.6156 7.43579V13.3845C15.6156 17.0806 18.6118 20.0768 22.3079 20.0768H25.2823V7.43579H26.7694V21.564H22.3079C17.7905 21.564 14.1284 17.9019 14.1284 13.3845V7.43579H15.6156Z" fill="white"/>
<path fill-rule="evenodd" clip-rule="evenodd" d="M29.7441 14.4999C29.7441 10.5985 32.9068 7.43579 36.8082 7.43579H42.3852V8.92297H36.8082C33.7282 8.92297 31.2313 11.4198 31.2313 14.4999C31.2313 17.5799 33.7282 20.0768 36.8082 20.0768H42.3852V21.564H36.8082C32.9068 21.564 29.7441 18.4013 29.7441 14.4999Z" fill="white"/>
<path fill-rule="evenodd" clip-rule="evenodd" d="M45.3594 7.43579H50.9363C54.8377 7.43579 58.0004 10.5985 58.0004 14.4999V21.564H49.2632C47.1072 21.564 45.3594 19.8162 45.3594 17.6601C45.3594 15.5041 47.1072 13.7563 49.2632 13.7563H56.4641C56.1005 11.0278 53.7642 8.92297 50.9363 8.92297H45.3594V7.43579ZM56.5132 15.2435H49.2632C47.9285 15.2435 46.8466 16.3255 46.8466 17.6601C46.8466 18.9948 47.9285 20.0768 49.2632 20.0768H56.5132V15.2435Z" fill="white"/>
<path fill-rule="evenodd" clip-rule="evenodd" d="M60.9751 11.3396C60.9751 9.1836 62.7229 7.43579 64.8789 7.43579H73.6161V8.92297H64.8789C63.5443 8.92297 62.4623 10.0049 62.4623 11.3396C62.4623 12.6743 63.5443 13.7563 64.8789 13.7563H69.7123C71.8683 13.7563 73.6161 15.5041 73.6161 17.6601C73.6161 19.8162 71.8683 21.564 69.7123 21.564H60.9751V20.0768H69.7123C71.047 20.0768 72.1289 18.9948 72.1289 17.6601C72.1289 16.3255 71.047 15.2435 69.7123 15.2435H64.8789C62.7229 15.2435 60.9751 13.4957 60.9751 11.3396Z" fill="white"/>
</svg>
